<svg xmlns="http://www.w3.org/2000/svg" xmlns:xlink="http://www.w3.org/1999/xlink" width="32" height="32" class="icon" p-id="2818" t="1582285876882" version="1.1" viewBox="0 0 1024 1024"><defs><style type="text/css"/></defs><path fill="#fff" d="M704 341.333333a64 64 0 1 0 0-128 64 64 0 0 0 0 128z m0 85.333334a149.333333 149.333333 0 1 1 0-298.666667 149.333333 149.333333 0 0 1 0 298.666667z m0 384a64 64 0 1 0 0-128 64 64 0 0 0 0 128z m0 85.333333a149.333333 149.333333 0 1 1 0-298.666667 149.333333 149.333333 0 0 1 0 298.666667z m-426.666667-341.333333a64 64 0 1 0 0-128 64 64 0 0 0 0 128z m96.469334 50.005333a149.333333 149.333333 0 1 1 11.648-217.002667L613.546667 256l42.666666 73.898667-231.893333 133.888a150.186667 150.186667 0 0 1-3.712 69.333333l222.08 128.213333-42.666667 73.898667-226.133333-130.56z" p-id="2819"/></svg>